<svg width="225" height="60" viewBox="0 0 225 60" fill="none" xmlns="http://www.w3.org/2000/svg">
<path d="M222.906 40.0444V19.5922H224.951V40.0444H222.906Z" fill="#33414E"/>
<path d="M211.464 40.4618C210.333 40.4618 209.382 40.2577 208.612 39.8496C207.852 39.4415 207.281 38.8989 206.901 38.2218C206.521 37.5447 206.331 36.8073 206.331 36.0096C206.331 35.1934 206.493 34.4977 206.818 33.9226C207.151 33.3383 207.601 32.8606 208.167 32.4896C208.742 32.1186 209.405 31.8357 210.157 31.6409C210.917 31.4554 211.757 31.2931 212.675 31.1539C213.602 31.0055 214.507 30.8803 215.388 30.7783C216.278 30.667 217.058 30.5603 217.725 30.4583L217.002 30.9035C217.03 29.4194 216.742 28.3203 216.139 27.6061C215.536 26.8919 214.488 26.5348 212.995 26.5348C211.965 26.5348 211.093 26.7667 210.379 27.2305C209.674 27.6942 209.178 28.427 208.891 29.4287L206.901 28.8444C207.244 27.4994 207.935 26.456 208.974 25.7139C210.013 24.9719 211.362 24.6009 213.023 24.6009C214.395 24.6009 215.56 24.8606 216.515 25.38C217.48 25.8902 218.161 26.6322 218.56 27.6061C218.746 28.0421 218.866 28.529 218.922 29.067C218.978 29.6049 219.005 30.1522 219.005 30.7087V40.0444H217.183V36.2739L217.711 36.4965C217.201 37.7858 216.408 38.769 215.332 39.4461C214.256 40.1232 212.967 40.4618 211.464 40.4618ZM211.701 38.6948C212.656 38.6948 213.491 38.5232 214.205 38.18C214.92 37.8368 215.495 37.3684 215.931 36.7748C216.367 36.1719 216.649 35.4948 216.779 34.7435C216.891 34.2612 216.951 33.7325 216.96 33.1574C216.969 32.5731 216.974 32.1371 216.974 31.8496L217.753 32.2531C217.058 32.3458 216.302 32.4386 215.485 32.5313C214.678 32.6241 213.881 32.7307 213.092 32.8513C212.313 32.9719 211.608 33.1157 210.978 33.2826C210.551 33.4032 210.138 33.5748 209.739 33.7974C209.34 34.0107 209.011 34.2983 208.751 34.66C208.501 35.0218 208.376 35.4716 208.376 36.0096C208.376 36.4455 208.482 36.8676 208.696 37.2757C208.918 37.6838 209.271 38.0223 209.753 38.2913C210.245 38.5603 210.894 38.6948 211.701 38.6948Z" fill="#33414E"/>
<path d="M204.205 40.0444C203.361 40.2206 202.526 40.2902 201.701 40.2531C200.884 40.216 200.152 40.0397 199.502 39.7244C198.862 39.409 198.375 38.9174 198.041 38.2496C197.772 37.6931 197.624 37.1319 197.596 36.5661C197.578 35.991 197.568 35.3371 197.568 34.6044V20.8444H199.6V34.5209C199.6 35.1516 199.604 35.6803 199.614 36.107C199.632 36.5244 199.73 36.8954 199.906 37.22C200.24 37.8415 200.768 38.2125 201.492 38.3331C202.225 38.4537 203.129 38.4258 204.205 38.2496V40.0444ZM194.354 26.7713V25.0183H204.205V26.7713H194.354Z" fill="#33414E"/>
<path d="M185.997 40.0444V25.0183H187.833V28.6357L187.472 28.1626C187.639 27.7174 187.857 27.3093 188.126 26.9383C188.395 26.558 188.687 26.2473 189.002 26.0061C189.392 25.6629 189.846 25.4032 190.366 25.227C190.885 25.0415 191.409 24.9348 191.938 24.907C192.466 24.8699 192.949 24.907 193.385 25.0183V26.9383C192.837 26.7992 192.239 26.7667 191.59 26.8409C190.941 26.9151 190.342 27.1748 189.795 27.62C189.294 28.0096 188.919 28.478 188.668 29.0253C188.418 29.5632 188.251 30.1383 188.167 30.7505C188.084 31.3534 188.042 31.9516 188.042 32.5453V40.0444H185.997Z" fill="#33414E"/>
<path d="M175.804 40.4618C174.311 40.4618 173.035 40.1232 171.978 39.4461C170.921 38.769 170.109 37.8322 169.543 36.6357C168.977 35.4392 168.695 34.0664 168.695 32.5174C168.695 30.9406 168.982 29.5586 169.557 28.3713C170.132 27.1841 170.948 26.2612 172.006 25.6026C173.073 24.9348 174.339 24.6009 175.804 24.6009C177.307 24.6009 178.587 24.9394 179.644 25.6165C180.711 26.2844 181.522 27.2165 182.079 28.4131C182.645 29.6003 182.928 30.9684 182.928 32.5174C182.928 34.0942 182.645 35.4809 182.079 36.6774C181.513 37.8647 180.697 38.7922 179.63 39.46C178.564 40.1278 177.288 40.4618 175.804 40.4618ZM175.804 38.5C177.474 38.5 178.717 37.9481 179.533 36.8444C180.349 35.7313 180.757 34.289 180.757 32.5174C180.757 30.6994 180.344 29.2525 179.519 28.1765C178.703 27.1006 177.464 26.5626 175.804 26.5626C174.682 26.5626 173.754 26.8177 173.022 27.3278C172.298 27.8287 171.755 28.529 171.394 29.4287C171.041 30.3192 170.865 31.3487 170.865 32.5174C170.865 34.3261 171.282 35.7777 172.117 36.8722C172.952 37.9574 174.181 38.5 175.804 38.5Z" fill="#33414E"/>
<path d="M159.81 40.4618C158.428 40.4618 157.259 40.1139 156.304 39.4183C155.348 38.7134 154.625 37.7626 154.133 36.5661C153.642 35.3603 153.396 34.0107 153.396 32.5174C153.396 30.9963 153.642 29.6421 154.133 28.4548C154.634 27.2583 155.367 26.3168 156.332 25.6305C157.296 24.9441 158.483 24.6009 159.893 24.6009C161.266 24.6009 162.444 24.9487 163.427 25.6444C164.41 26.34 165.162 27.2861 165.681 28.4826C166.21 29.6792 166.474 31.0241 166.474 32.5174C166.474 34.02 166.21 35.3696 165.681 36.5661C165.152 37.7626 164.392 38.7134 163.399 39.4183C162.407 40.1139 161.21 40.4618 159.81 40.4618ZM153.048 46.7226V25.0183H154.885V36.3296H155.107V46.7226H153.048ZM159.601 38.5557C160.649 38.5557 161.521 38.2913 162.217 37.7626C162.912 37.2339 163.432 36.5151 163.775 35.6061C164.128 34.6878 164.304 33.6583 164.304 32.5174C164.304 31.3858 164.132 30.3655 163.789 29.4565C163.446 28.5476 162.922 27.8287 162.217 27.3C161.521 26.7713 160.635 26.507 159.559 26.507C158.511 26.507 157.639 26.7621 156.944 27.2722C156.257 27.7823 155.743 28.4919 155.399 29.4009C155.056 30.3006 154.885 31.3394 154.885 32.5174C154.885 33.6768 155.056 34.7157 155.399 35.6339C155.743 36.5429 156.262 37.2571 156.958 37.7765C157.653 38.296 158.534 38.5557 159.601 38.5557Z" fill="#33414E"/>
<path d="M145.612 40.0444V32.9487C145.612 32.6055 145.593 32.1696 145.556 31.6409C145.519 31.1029 145.403 30.565 145.208 30.027C145.014 29.489 144.694 29.0392 144.248 28.6774C143.812 28.3157 143.191 28.1348 142.384 28.1348C142.059 28.1348 141.712 28.1858 141.341 28.2879C140.97 28.3899 140.622 28.5893 140.297 28.8861C139.972 29.1737 139.703 29.6003 139.49 30.1661C139.286 30.7319 139.184 31.4832 139.184 32.42L137.014 31.3905C137.014 30.2032 137.255 29.0902 137.737 28.0513C138.219 27.0125 138.943 26.1731 139.907 25.5331C140.881 24.8931 142.106 24.5731 143.581 24.5731C144.758 24.5731 145.718 24.7725 146.461 25.1713C147.203 25.5702 147.778 26.0757 148.186 26.6879C148.603 27.3 148.9 27.94 149.076 28.6079C149.252 29.2664 149.359 29.8693 149.396 30.4166C149.433 30.9638 149.452 31.3626 149.452 31.6131V40.0444H145.612ZM135.344 40.0444V25.0183H138.711V29.9992H139.184V40.0444H135.344Z" fill="#33414E"/>
<path d="M127.416 22.9313V19.5922H131.201V22.9313H127.416ZM127.416 40.0444V25.0183H131.201V40.0444H127.416Z" fill="#33414E"/>
<path d="M119.736 40.0444V31.1679C119.736 30.1754 119.499 29.4055 119.026 28.8583C118.563 28.3018 117.918 28.0235 117.092 28.0235C116.564 28.0235 116.105 28.1487 115.715 28.3992C115.325 28.6403 115.019 28.9835 114.797 29.4287C114.583 29.8647 114.477 30.3702 114.477 30.9453L112.891 29.8879C112.891 28.8583 113.132 27.9493 113.614 27.1609C114.106 26.3725 114.76 25.7603 115.576 25.3244C116.401 24.8792 117.315 24.6566 118.317 24.6566C120.033 24.6566 121.327 25.1667 122.198 26.187C123.08 27.198 123.52 28.5244 123.52 30.1661V40.0444H119.736ZM101.621 40.0444V25.0183H104.96V29.9992H105.433V40.0444H101.621ZM110.692 40.0444V31.1679C110.692 30.1754 110.456 29.4055 109.983 28.8583C109.519 28.3018 108.874 28.0235 108.049 28.0235C107.261 28.0235 106.625 28.2971 106.143 28.8444C105.67 29.3824 105.433 30.0826 105.433 30.9453L103.847 29.8322C103.847 28.849 104.093 27.9679 104.585 27.1887C105.076 26.4096 105.735 25.7928 106.56 25.3383C107.395 24.8838 108.327 24.6566 109.357 24.6566C110.535 24.6566 111.499 24.907 112.251 25.4079C113.011 25.9087 113.572 26.5766 113.934 27.4113C114.296 28.2461 114.477 29.1644 114.477 30.1661V40.0444H110.692Z" fill="#33414E"/>
<path d="M90.3515 40.4618C88.9695 40.4618 87.7591 40.1139 86.7202 39.4183C85.6814 38.7226 84.8698 37.7766 84.2855 36.58C83.7104 35.3835 83.4229 34.0339 83.4229 32.5313C83.4229 31.0009 83.715 29.6421 84.2994 28.4548C84.893 27.2583 85.7231 26.3168 86.7898 25.6305C87.8565 24.9441 89.1086 24.6009 90.5463 24.6009C91.9747 24.6009 93.1759 24.9487 94.1498 25.6444C95.1237 26.34 95.8611 27.2861 96.362 28.4826C96.8629 29.6792 97.1133 31.0287 97.1133 32.5313C97.1133 34.0339 96.8582 35.3835 96.3481 36.58C95.8472 37.7766 95.0959 38.7226 94.0942 39.4183C93.0924 40.1139 91.8449 40.4618 90.3515 40.4618ZM90.9637 37.0948C91.8078 37.0948 92.4802 36.9047 92.9811 36.5244C93.4913 36.1441 93.8576 35.6108 94.0802 34.9244C94.3029 34.238 94.4142 33.4403 94.4142 32.5313C94.4142 31.6224 94.3029 30.8247 94.0802 30.1383C93.8576 29.4519 93.5005 28.9186 93.0089 28.5383C92.5266 28.158 91.8913 27.9679 91.1029 27.9679C90.2588 27.9679 89.5631 28.1766 89.0159 28.5939C88.4779 29.0021 88.0791 29.5539 87.8194 30.2496C87.5597 30.936 87.4298 31.6966 87.4298 32.5313C87.4298 33.3754 87.555 34.1453 87.8055 34.8409C88.0559 35.5273 88.4408 36.0745 88.9602 36.4826C89.4797 36.8908 90.1475 37.0948 90.9637 37.0948ZM94.4142 40.0444V29.7487H93.9411V20.0096H97.7533V40.0444H94.4142Z" fill="#33414E"/>
<path d="M72.2086 40.4618C71.1327 40.4618 70.2191 40.2577 69.4678 39.8496C68.7257 39.4322 68.16 38.8803 67.7704 38.1939C67.3901 37.4983 67.2 36.7331 67.2 35.8983C67.2 35.2026 67.3066 34.5673 67.52 33.9922C67.7333 33.4171 68.0765 32.9116 68.5495 32.4757C69.0318 32.0305 69.6765 31.6594 70.4834 31.3626C71.04 31.1586 71.7031 30.9777 72.473 30.82C73.2429 30.6623 74.1147 30.5139 75.0886 30.3748C76.0626 30.2264 77.1339 30.0641 78.3026 29.8878L76.9391 30.6392C76.9391 29.7487 76.7257 29.0948 76.2991 28.6774C75.8724 28.26 75.1582 28.0513 74.1565 28.0513C73.6 28.0513 73.0202 28.1858 72.4173 28.4548C71.8144 28.7238 71.3924 29.2015 71.1513 29.8878L67.7286 28.8026C68.1089 27.5597 68.8231 26.5487 69.8713 25.7696C70.9194 24.9905 72.3478 24.6009 74.1565 24.6009C75.4829 24.6009 76.6608 24.8049 77.6904 25.2131C78.72 25.6212 79.4991 26.3261 80.0278 27.3278C80.3246 27.8844 80.5008 28.4409 80.5565 28.9974C80.6121 29.5539 80.64 30.1754 80.64 30.8618V40.0444H77.3286V36.9557L77.8017 37.5957C77.0689 38.6067 76.2759 39.3394 75.4226 39.7939C74.5785 40.2392 73.5072 40.4618 72.2086 40.4618ZM73.0156 37.4844C73.7113 37.4844 74.2956 37.3638 74.7686 37.1226C75.251 36.8722 75.6313 36.5893 75.9095 36.2739C76.1971 35.9586 76.3918 35.6942 76.4939 35.4809C76.6886 35.0728 76.8 34.5997 76.8278 34.0618C76.8649 33.5145 76.8834 33.06 76.8834 32.6983L77.9965 32.9765C76.8742 33.1621 75.9652 33.3197 75.2695 33.4496C74.5739 33.5702 74.0127 33.6815 73.586 33.7835C73.1594 33.8855 72.7837 33.9968 72.4591 34.1174C72.0881 34.2658 71.7866 34.4281 71.5547 34.6044C71.3321 34.7713 71.1652 34.9568 71.0539 35.1609C70.9518 35.3649 70.9008 35.5922 70.9008 35.8426C70.9008 36.1858 70.9843 36.4826 71.1513 36.7331C71.3275 36.9742 71.5733 37.1597 71.8886 37.2896C72.204 37.4194 72.5797 37.4844 73.0156 37.4844Z" fill="#33414E"/>
<path d="M24.1804 59.0729L2.16695 46.6185C0.117976 45.4592 -0.605354 42.8545 0.551338 40.801L1.51112 39.0973C2.66781 37.0438 5.26637 36.3185 7.31534 37.4777L29.3292 49.9322C31.3782 51.0918 32.1015 53.6962 30.9448 55.7497L29.9851 57.4537C28.8284 59.5073 26.2294 60.2322 24.1804 59.0729Z" fill="#3E7AC7"/>
<mask id="mask0_35_822" style="mask-type:luminance" maskUnits="userSpaceOnUse" x="0" y="40" width="29" height="20">
<path d="M27.7231 59.3704L28.8634 58.7475C28.5151 59.0141 28.1297 59.2231 27.7231 59.3704ZM21.8745 57.7684L2.1668 46.6185C0.778053 45.8327 -0.00159519 44.3833 2.45055e-06 42.8914C0.000801271 42.2301 0.154972 41.5608 0.477695 40.9371V41.2397C0.356275 41.6817 0.296761 42.1316 0.296362 42.5787C0.293965 44.3572 1.2234 46.0849 2.87855 47.0212L13.4374 52.9948C13.5084 51.7891 13.808 50.6451 14.3388 49.5651C14.5964 48.7853 14.9339 48.0276 15.3585 47.2934C15.976 46.4924 16.5935 45.6918 17.2106 44.8908C17.6128 44.4905 18.0366 44.1267 18.4779 43.7932L26.2772 48.2057L22.6142 50.2068C21.1935 50.9825 20.3895 52.4508 20.3919 53.9656C20.3927 54.6541 20.5604 55.3526 20.9123 55.9995L21.8465 57.7175C21.8557 57.7343 21.8653 57.7516 21.8745 57.7684Z" fill="white"/>
</mask>
<g mask="url(#mask0_35_822)">
<path d="M27.7231 59.3704L28.8634 58.7475C28.5151 59.0141 28.1297 59.2231 27.7231 59.3704ZM21.8745 57.7684L2.1668 46.6185C0.778053 45.8327 -0.00159519 44.3833 2.45055e-06 42.8914C0.000801271 42.2301 0.154972 41.5608 0.477695 40.9371V41.2397C0.356275 41.6817 0.296761 42.1316 0.296362 42.5787C0.293965 44.3572 1.2234 46.0849 2.87855 47.0212L13.4374 52.9948C13.5084 51.7891 13.808 50.6451 14.3388 49.5651C14.5964 48.7853 14.9339 48.0276 15.3585 47.2934C15.976 46.4924 16.5935 45.6918 17.2106 44.8908C17.6128 44.4905 18.0366 44.1267 18.4779 43.7932L26.2772 48.2057L22.6142 50.2068C21.1935 50.9825 20.3895 52.4508 20.3919 53.9656C20.3927 54.6541 20.5604 55.3526 20.9123 55.9995L21.8465 57.7175C21.8557 57.7343 21.8653 57.7516 21.8745 57.7684Z" fill="url(#paint0_linear_35_822)"/>
</g>
<path d="M22.6143 50.2068L44.8103 38.0818C46.876 36.9533 49.4638 37.7171 50.5901 39.7878L51.5244 41.5055C52.6503 43.5762 51.8886 46.1698 49.8225 47.2982L27.6265 59.4232C25.5603 60.5516 22.9725 59.7879 21.8466 57.7175L20.9124 55.9995C19.786 53.9287 20.5481 51.3352 22.6143 50.2068Z" fill="#47407F"/>
<mask id="mask1_35_822" style="mask-type:luminance" maskUnits="userSpaceOnUse" x="20" y="39" width="31" height="21">
<path d="M25.591 60C24.0816 60 22.6198 59.1942 21.8465 57.7728L20.9123 56.0547C20.5604 55.4078 20.3926 54.7093 20.3919 54.0208C20.3895 52.5061 21.1935 51.0378 22.6142 50.262L41.6169 39.8815V43.3068C41.6169 45.665 43.5245 47.5768 45.877 47.5768H48.1405C49.0951 47.5768 49.9761 47.2622 50.6863 46.731C50.4311 46.9688 50.1423 47.1789 49.8224 47.3534L27.6264 59.4784C26.9789 59.8319 26.28 60 25.591 60Z" fill="white"/>
</mask>
<g mask="url(#mask1_35_822)">
<path d="M25.591 60C24.0816 60 22.6198 59.1942 21.8465 57.7728L20.9123 56.0547C20.5604 55.4078 20.3926 54.7093 20.3919 54.0208C20.3895 52.5061 21.1935 51.0378 22.6142 50.262L41.6169 39.8815V43.3068C41.6169 45.665 43.5245 47.5768 45.877 47.5768H48.1405C49.0951 47.5768 49.9761 47.2622 50.6863 46.731C50.4311 46.9688 50.1423 47.1789 49.8224 47.3534L27.6264 59.4784C26.9789 59.8319 26.28 60 25.591 60Z" fill="url(#paint1_linear_35_822)"/>
</g>
<path d="M52.401 43.2516C52.401 45.6098 50.4934 47.5216 48.1405 47.5216H45.8771C43.5245 47.5216 41.6169 45.6098 41.6169 43.2516V17.7659C41.6169 15.4082 43.5245 13.4964 45.8771 13.4964H48.1405C50.4934 13.4964 52.401 15.4082 52.401 17.7659V43.2516Z" fill="#EE2822"/>
<mask id="mask2_35_822" style="mask-type:luminance" maskUnits="userSpaceOnUse" x="41" y="17" width="12" height="31">
<path d="M48.1405 47.5768H45.8771C43.5245 47.5768 41.6169 45.665 41.6169 43.3068V20.7317L44.9364 22.6876C45.6146 23.0871 46.3579 23.2772 47.0916 23.2772C48.5523 23.2772 49.975 22.5238 50.7686 21.1704L51.758 19.484C52.1562 18.8047 52.3459 18.0609 52.3463 17.3264C52.3463 17.2503 52.3443 17.1747 52.3403 17.099C52.3802 17.334 52.401 17.5754 52.401 17.8212V43.3068C52.401 45.665 50.4934 47.5768 48.1405 47.5768Z" fill="white"/>
</mask>
<g mask="url(#mask2_35_822)">
<path d="M48.1405 47.5768H45.8771C43.5245 47.5768 41.6169 45.665 41.6169 43.3068V20.7317L44.9364 22.6876C45.6146 23.0871 46.3579 23.2772 47.0916 23.2772C48.5523 23.2772 49.975 22.5238 50.7686 21.1704L51.758 19.484C52.1562 18.8047 52.3459 18.0609 52.3463 17.3264C52.3463 17.2503 52.3443 17.1747 52.3403 17.099C52.3802 17.334 52.401 17.5754 52.401 17.8212V43.3068C52.401 45.665 50.4934 47.5768 48.1405 47.5768Z" fill="url(#paint2_linear_35_822)"/>
</g>
<path d="M28.4521 0.744122L50.2444 13.5836C52.273 14.7789 52.9504 17.3957 51.7581 19.4288L50.7688 21.1152C49.5761 23.1483 46.9652 23.8276 44.9366 22.6323L23.1444 9.79282C21.1162 8.59794 20.4384 5.9808 21.6306 3.9481L22.6204 2.26125C23.8126 0.228546 26.4239 -0.450763 28.4521 0.744122Z" fill="#F6871E"/>
<mask id="mask3_35_822" style="mask-type:luminance" maskUnits="userSpaceOnUse" x="26" y="1" width="27" height="23">
<path d="M47.0917 23.222C46.358 23.222 45.6147 23.0318 44.9365 22.6323L26.3315 11.6706L29.7445 9.59066C31.0638 8.78646 31.7923 7.37902 31.7919 5.93675C31.7915 5.18139 31.5914 4.41683 31.1708 3.72392L30.1567 2.05228C30.0433 1.86534 29.9182 1.69081 29.7824 1.52789L50.2442 13.5836C51.5954 14.3798 52.3471 15.8061 52.3463 17.2712C52.3459 18.0057 52.1562 18.7494 51.758 19.4287L50.7686 21.1152C49.975 22.4686 48.5523 23.222 47.0917 23.222Z" fill="white"/>
</mask>
<g mask="url(#mask3_35_822)">
<path d="M47.0917 23.222C46.358 23.222 45.6147 23.0318 44.9365 22.6323L26.3315 11.6706L29.7445 9.59066C31.0638 8.78646 31.7923 7.37902 31.7919 5.93675C31.7915 5.18139 31.5914 4.41683 31.1708 3.72392L30.1567 2.05228C30.0433 1.86534 29.9182 1.69081 29.7824 1.52789L50.2442 13.5836C51.5954 14.3798 52.3471 15.8061 52.3463 17.2712C52.3459 18.0057 52.1562 18.7494 51.758 19.4287L50.7686 21.1152C49.975 22.4686 48.5523 23.222 47.0917 23.222Z" fill="url(#paint3_linear_35_822)"/>
</g>
<path d="M2.70372 13.7858L24.3026 0.622443C26.3133 -0.602864 28.9342 0.0372183 30.1568 2.05231L31.1709 3.72395C32.3935 5.73904 31.7548 8.36538 29.7446 9.59069L8.14529 22.7544C6.13506 23.9793 3.51412 23.3393 2.29153 21.3242L1.27703 19.6525C0.0544387 17.6378 0.693494 15.0111 2.70372 13.7858Z" fill="#F2D918"/>
<mask id="mask4_35_822" style="mask-type:luminance" maskUnits="userSpaceOnUse" x="3" y="0" width="29" height="21">
<path d="M11.2616 20.855V17.3657C11.2616 15.0075 9.35403 13.0961 7.00151 13.0961H4.73765C4.33185 13.0961 3.93923 13.1529 3.56738 13.259L24.3024 0.622459C24.9937 0.200947 25.7578 5.93203e-06 26.5119 5.93203e-06C27.9506 5.93203e-06 29.3541 0.730147 30.1565 2.05233L31.1706 3.72396C31.5912 4.41688 31.7913 5.18143 31.7917 5.93679C31.7921 7.37906 31.0636 8.78651 29.7443 9.5907L26.3314 11.6706L11.2616 20.855Z" fill="white"/>
</mask>
<g mask="url(#mask4_35_822)">
<path d="M11.2616 20.855V17.3657C11.2616 15.0075 9.35403 13.0961 7.00151 13.0961H4.73765C4.33185 13.0961 3.93923 13.1529 3.56738 13.259L24.3024 0.622459C24.9937 0.200947 25.7578 5.93203e-06 26.5119 5.93203e-06C27.9506 5.93203e-06 29.3541 0.730147 30.1565 2.05233L31.1706 3.72396C31.5912 4.41688 31.7913 5.18143 31.7917 5.93679C31.7921 7.37906 31.0636 8.78651 29.7443 9.5907L26.3314 11.6706L11.2616 20.855Z" fill="url(#paint4_linear_35_822)"/>
</g>
<path d="M11.2619 42.8513C11.2619 45.2094 9.35428 47.1212 7.00175 47.1212H4.73789C2.38496 47.1212 0.477783 45.2094 0.477783 42.8513V17.3656C0.477783 15.0075 2.38496 13.0961 4.73789 13.0961H7.00175C9.35428 13.0961 11.2619 15.0075 11.2619 17.3656V42.8513Z" fill="#74D1D6"/>
<mask id="mask5_35_822" style="mask-type:luminance" maskUnits="userSpaceOnUse" x="0" y="13" width="12" height="29">
<path d="M0.477783 41.2397V17.3656C0.477783 15.0075 2.38496 13.0961 4.73789 13.0961H7.00175C9.35428 13.0961 11.2619 15.0075 11.2619 17.3656V39.7106L8.02703 37.8804C7.2386 37.4345 6.38106 37.2223 5.53591 37.2223C3.76333 37.2223 2.04267 38.1534 1.10885 39.8107L0.953077 40.0877C0.743786 40.4591 0.586023 40.8462 0.477783 41.2397Z" fill="white"/>
</mask>
<g mask="url(#mask5_35_822)">
<path d="M0.477783 41.2397V17.3656C0.477783 15.0075 2.38496 13.0961 4.73789 13.0961H7.00175C9.35428 13.0961 11.2619 15.0075 11.2619 17.3656V39.7106L8.02703 37.8804C7.2386 37.4345 6.38106 37.2223 5.53591 37.2223C3.76333 37.2223 2.04267 38.1534 1.10885 39.8107L0.953077 40.0877C0.743786 40.4591 0.586023 40.8462 0.477783 41.2397Z" fill="url(#paint5_linear_35_822)"/>
</g>
<path d="M14.3389 49.5651C14.5965 48.7853 14.934 48.0275 15.3585 47.2934C15.976 46.4924 16.5935 45.6918 17.2106 44.8908C17.6128 44.4905 18.0366 44.1266 18.4779 43.7932L8.02698 37.8804C5.58498 36.499 2.48756 37.3632 1.1088 39.8107L0.953019 40.0877C-0.425744 42.5351 0.43659 45.6394 2.87858 47.0212L13.4374 52.9948C13.5085 51.7891 13.808 50.6451 14.3389 49.5651Z" fill="#3E7AC7"/>
<mask id="mask6_35_822" style="mask-type:luminance" maskUnits="userSpaceOnUse" x="0" y="37" width="19" height="16">
<path d="M13.4374 52.9948L2.87858 47.0212C1.22343 46.0849 0.293995 44.3572 0.296391 42.5787C0.29719 41.7333 0.508875 40.8762 0.953019 40.0877L1.10879 39.8107C2.04262 38.1534 3.76327 37.2223 5.53585 37.2223C6.381 37.2223 7.23854 37.4345 8.02698 37.8804L18.4779 43.7932C18.0366 44.1266 17.6128 44.4905 17.2106 44.8908C16.5935 45.6918 15.976 46.4924 15.3585 47.2934C14.934 48.0275 14.5965 48.7853 14.3389 49.5651C13.808 50.6451 13.5085 51.7891 13.4374 52.9948Z" fill="white"/>
</mask>
<g mask="url(#mask6_35_822)">
<path d="M13.4374 52.9948L2.87858 47.0212C1.22343 46.0849 0.293995 44.3572 0.296391 42.5787C0.29719 41.7333 0.508875 40.8762 0.953019 40.0877L1.10879 39.8107C2.04262 38.1534 3.76327 37.2223 5.53585 37.2223C6.381 37.2223 7.23854 37.4345 8.02698 37.8804L18.4779 43.7932C18.0366 44.1266 17.6128 44.4905 17.2106 44.8908C16.5935 45.6918 15.976 46.4924 15.3585 47.2934C14.934 48.0275 14.5965 48.7853 14.3389 49.5651C13.808 50.6451 13.5085 51.7891 13.4374 52.9948Z" fill="url(#paint6_linear_35_822)"/>
</g>
<defs>
<linearGradient id="paint0_linear_35_822" x1="30.465" y1="56.6015" x2="0.999703" y2="40.0049" gradientUnits="userSpaceOnUse">
<stop stop-color="#3056AE"/>
<stop offset="1" stop-color="#4BBBEE"/>
</linearGradient>
<linearGradient id="paint1_linear_35_822" x1="51.0569" y1="40.7017" x2="21.349" y2="56.8581" gradientUnits="userSpaceOnUse">
<stop stop-color="#1C1D40"/>
<stop offset="1" stop-color="#8275B1"/>
</linearGradient>
<linearGradient id="paint2_linear_35_822" x1="47.009" y1="13.5516" x2="47.009" y2="47.5768" gradientUnits="userSpaceOnUse">
<stop stop-color="#E01D25"/>
<stop offset="1" stop-color="#F1501D"/>
</linearGradient>
<linearGradient id="paint3_linear_35_822" x1="22.1254" y1="3.10466" x2="51.2964" y2="20.2155" gradientUnits="userSpaceOnUse">
<stop stop-color="#F25B22"/>
<stop offset="1" stop-color="#FABB18"/>
</linearGradient>
<linearGradient id="paint4_linear_35_822" x1="1.78402" y1="20.4888" x2="30.698" y2="2.94521" gradientUnits="userSpaceOnUse">
<stop stop-color="#F1BA17"/>
<stop offset="1" stop-color="#EFEF20"/>
</linearGradient>
<linearGradient id="paint5_linear_35_822" x1="5.86982" y1="47.1213" x2="5.86982" y2="13.0961" gradientUnits="userSpaceOnUse">
<stop stop-color="#55C7D0"/>
<stop offset="1" stop-color="#9EDFE0"/>
</linearGradient>
<linearGradient id="paint6_linear_35_822" x1="30.4646" y1="56.6015" x2="0.999329" y2="40.0049" gradientUnits="userSpaceOnUse">
<stop stop-color="#3056AE"/>
<stop offset="1" stop-color="#4BBBEE"/>
</linearGradient>
</defs>
</svg>
