<svg width="151" height="37" viewBox="0 0 151 37" fill="none" xmlns="http://www.w3.org/2000/svg">
<path d="M1.05727 8.78998C2.3352 11.077 15.9214 20.8699 18.2136 19.5089C20.7261 18.0182 16.9412 12.2519 15.8701 10.7147C12.7813 6.28663 10.2644 2.19872 4.67666 0.27169C-0.198775 -1.40914 -0.995041 5.11332 1.05727 8.78998Z" fill="#0A559A"/>
<path d="M7.24217 35.1571C9.38517 34.5072 19.7458 24.9913 18.9161 22.8461C18.0089 20.4959 12.5253 22.6026 11.0541 23.2163C6.8154 24.9859 2.9518 26.3405 0.487434 30.6305C-1.66352 34.3748 3.79818 36.2016 7.24217 35.1571Z" fill="#0A559A" fill-opacity="0.8"/>
<path d="M22.8738 3.12992C21.8094 4.87319 20.5299 17.6361 22.3969 18.5934C24.4396 19.6426 26.8945 14.8814 27.5237 13.5717C29.3346 9.79556 31.1423 6.52897 30.2179 2.11371C29.4105 -1.73915 24.5844 0.329866 22.8738 3.12992Z" fill="#0A559A" fill-opacity="0.2"/>
<path d="M33.3306 25.6975C31.8188 25.9565 23.5789 23.1362 23.8136 21.505C24.0709 19.7192 28.0037 19.3398 29.0665 19.2702C32.1263 19.067 34.8786 18.7185 37.1353 20.6834C39.1037 22.3976 35.7596 25.2824 33.3306 25.6975Z" fill="#0A559A" fill-opacity="0.4"/>
<path d="M21.3866 34.159C20.5919 32.846 20.2005 24.1456 21.8046 23.7689C23.5602 23.3529 25.3532 26.8753 25.807 27.8378C27.116 30.612 28.4472 33.0458 27.4453 35.8642C26.5707 38.3241 22.6617 36.2683 21.3866 34.159Z" fill="#0A559A" fill-opacity="0.6"/>
<path d="M52.4077 24H49.7713L53.7884 12.3636H56.9588L60.9702 24H58.3338L55.419 15.0227H55.3281L52.4077 24ZM52.2429 19.4261H58.4702V21.3466H52.2429V19.4261ZM65.1349 24.142C64.4721 24.142 63.8717 23.9716 63.3338 23.6307C62.7997 23.286 62.3755 22.7803 62.0611 22.1136C61.7505 21.4432 61.5952 20.6212 61.5952 19.6477C61.5952 18.6477 61.7562 17.8163 62.0781 17.1534C62.4001 16.4867 62.8281 15.9886 63.3622 15.6591C63.9001 15.3258 64.4891 15.1591 65.1293 15.1591C65.6179 15.1591 66.0251 15.2424 66.3509 15.4091C66.6804 15.572 66.9455 15.7765 67.1463 16.0227C67.3509 16.2652 67.5062 16.5038 67.6122 16.7386H67.6861V12.3636H70.1009V24H67.7145V22.6023H67.6122C67.4986 22.8447 67.3376 23.0852 67.1293 23.3239C66.9247 23.5587 66.6577 23.7538 66.3281 23.9091C66.0024 24.0644 65.6046 24.142 65.1349 24.142ZM65.902 22.2159C66.2921 22.2159 66.6217 22.1098 66.8906 21.8977C67.1634 21.6818 67.3717 21.3807 67.5156 20.9943C67.6634 20.608 67.7372 20.1553 67.7372 19.6364C67.7372 19.1174 67.6652 18.6667 67.5213 18.2841C67.3774 17.9015 67.169 17.6061 66.8963 17.3977C66.6236 17.1894 66.2921 17.0852 65.902 17.0852C65.5043 17.0852 65.169 17.1932 64.8963 17.4091C64.6236 17.625 64.4171 17.9242 64.277 18.3068C64.1368 18.6894 64.0668 19.1326 64.0668 19.6364C64.0668 20.1439 64.1368 20.5928 64.277 20.983C64.4209 21.3693 64.6274 21.6723 64.8963 21.892C65.169 22.108 65.5043 22.2159 65.902 22.2159ZM72.0909 24V15.2727H74.3977V16.8125H74.5C74.6818 16.3011 74.9848 15.8977 75.4091 15.6023C75.8333 15.3068 76.3409 15.1591 76.9318 15.1591C77.5303 15.1591 78.0398 15.3087 78.4602 15.608C78.8807 15.9034 79.161 16.3049 79.3011 16.8125H79.392C79.5701 16.3125 79.892 15.9129 80.358 15.6136C80.8277 15.3106 81.3826 15.1591 82.0227 15.1591C82.8371 15.1591 83.4981 15.4186 84.0057 15.9375C84.517 16.4527 84.7727 17.1837 84.7727 18.1307V24H82.358V18.608C82.358 18.1231 82.2292 17.7595 81.9716 17.517C81.714 17.2746 81.392 17.1534 81.0057 17.1534C80.5663 17.1534 80.2235 17.2936 79.9773 17.5739C79.7311 17.8504 79.608 18.2159 79.608 18.6705V24H77.2614V18.5568C77.2614 18.1288 77.1383 17.7879 76.892 17.5341C76.6496 17.2803 76.3295 17.1534 75.9318 17.1534C75.6629 17.1534 75.4205 17.2216 75.2045 17.358C74.9924 17.4905 74.8239 17.678 74.6989 17.9205C74.5739 18.1591 74.5114 18.4394 74.5114 18.7614V24H72.0909ZM86.6847 24V15.2727H89.1051V24H86.6847ZM87.9006 14.1477C87.5407 14.1477 87.232 14.0284 86.9744 13.7898C86.7206 13.5473 86.5938 13.2576 86.5938 12.9205C86.5938 12.5871 86.7206 12.3011 86.9744 12.0625C87.232 11.8201 87.5407 11.6989 87.9006 11.6989C88.2604 11.6989 88.5672 11.8201 88.821 12.0625C89.0786 12.3011 89.2074 12.5871 89.2074 12.9205C89.2074 13.2576 89.0786 13.5473 88.821 13.7898C88.5672 14.0284 88.2604 14.1477 87.9006 14.1477ZM93.4645 18.9545V24H91.044V15.2727H93.3509V16.8125H93.4531C93.6463 16.3049 93.9702 15.9034 94.4247 15.608C94.8793 15.3087 95.4304 15.1591 96.0781 15.1591C96.6842 15.1591 97.2126 15.2917 97.6634 15.5568C98.1141 15.822 98.4645 16.2008 98.7145 16.6932C98.9645 17.1818 99.0895 17.7652 99.0895 18.4432V24H96.669V18.875C96.6728 18.3409 96.5365 17.9242 96.2599 17.625C95.9834 17.322 95.6027 17.1705 95.1179 17.1705C94.7921 17.1705 94.5043 17.2405 94.2543 17.3807C94.008 17.5208 93.8149 17.7254 93.6747 17.9943C93.5384 18.2595 93.4683 18.5795 93.4645 18.9545ZM104.746 24V12.3636H109.337C110.219 12.3636 110.971 12.5322 111.592 12.8693C112.214 13.2027 112.687 13.6667 113.013 14.2614C113.342 14.8523 113.507 15.5341 113.507 16.3068C113.507 17.0795 113.34 17.7614 113.007 18.3523C112.674 18.9432 112.191 19.4034 111.558 19.733C110.929 20.0625 110.168 20.2273 109.274 20.2273H106.348V18.2557H108.876C109.35 18.2557 109.74 18.1742 110.047 18.0114C110.357 17.8447 110.589 17.6155 110.74 17.3239C110.895 17.0284 110.973 16.6894 110.973 16.3068C110.973 15.9205 110.895 15.5833 110.74 15.2955C110.589 15.0038 110.357 14.7784 110.047 14.6193C109.736 14.4564 109.342 14.375 108.865 14.375H107.206V24H104.746ZM118.862 24.1705C117.98 24.1705 117.216 23.983 116.572 23.608C115.932 23.2292 115.438 22.7027 115.089 22.0284C114.741 21.3504 114.567 20.5644 114.567 19.6705C114.567 18.7689 114.741 17.9811 115.089 17.3068C115.438 16.6288 115.932 16.1023 116.572 15.7273C117.216 15.3485 117.98 15.1591 118.862 15.1591C119.745 15.1591 120.506 15.3485 121.146 15.7273C121.79 16.1023 122.286 16.6288 122.635 17.3068C122.983 17.9811 123.158 18.7689 123.158 19.6705C123.158 20.5644 122.983 21.3504 122.635 22.0284C122.286 22.7027 121.79 23.2292 121.146 23.608C120.506 23.983 119.745 24.1705 118.862 24.1705ZM118.874 22.2955C119.275 22.2955 119.61 22.1818 119.879 21.9545C120.148 21.7235 120.351 21.4091 120.487 21.0114C120.627 20.6136 120.697 20.161 120.697 19.6534C120.697 19.1458 120.627 18.6932 120.487 18.2955C120.351 17.8977 120.148 17.5833 119.879 17.3523C119.61 17.1212 119.275 17.0057 118.874 17.0057C118.468 17.0057 118.127 17.1212 117.851 17.3523C117.578 17.5833 117.372 17.8977 117.232 18.2955C117.095 18.6932 117.027 19.1458 117.027 19.6534C117.027 20.161 117.095 20.6136 117.232 21.0114C117.372 21.4091 117.578 21.7235 117.851 21.9545C118.127 22.1818 118.468 22.2955 118.874 22.2955ZM124.732 24V15.2727H127.078V16.7955H127.169C127.328 16.2538 127.595 15.8447 127.97 15.5682C128.345 15.2879 128.777 15.1477 129.266 15.1477C129.387 15.1477 129.518 15.1553 129.658 15.1705C129.798 15.1856 129.921 15.2064 130.027 15.233V17.3807C129.913 17.3466 129.756 17.3163 129.555 17.2898C129.355 17.2633 129.171 17.25 129.004 17.25C128.648 17.25 128.33 17.3277 128.05 17.483C127.773 17.6345 127.554 17.8466 127.391 18.1193C127.232 18.392 127.152 18.7064 127.152 19.0625V24H124.732ZM136.358 15.2727V17.0909H131.102V15.2727H136.358ZM132.295 13.1818H134.716V21.3182C134.716 21.5417 134.75 21.7159 134.818 21.8409C134.886 21.9621 134.981 22.0473 135.102 22.0966C135.227 22.1458 135.371 22.1705 135.534 22.1705C135.648 22.1705 135.761 22.161 135.875 22.142C135.989 22.1193 136.076 22.1023 136.136 22.0909L136.517 23.892C136.396 23.9299 136.225 23.9735 136.006 24.0227C135.786 24.0758 135.519 24.108 135.205 24.1193C134.621 24.142 134.11 24.0644 133.67 23.8864C133.235 23.7083 132.896 23.4318 132.653 23.0568C132.411 22.6818 132.292 22.2083 132.295 21.6364V13.1818ZM140.423 24.1648C139.866 24.1648 139.37 24.0682 138.935 23.875C138.499 23.678 138.154 23.3883 137.901 23.0057C137.651 22.6193 137.526 22.1383 137.526 21.5625C137.526 21.0777 137.615 20.6705 137.793 20.3409C137.971 20.0114 138.213 19.7462 138.52 19.5455C138.827 19.3447 139.175 19.1932 139.565 19.0909C139.959 18.9886 140.372 18.9167 140.804 18.875C141.312 18.822 141.721 18.7727 142.031 18.7273C142.342 18.678 142.567 18.6061 142.707 18.5114C142.848 18.4167 142.918 18.2765 142.918 18.0909V18.0568C142.918 17.697 142.804 17.4186 142.577 17.2216C142.353 17.0246 142.035 16.9261 141.622 16.9261C141.187 16.9261 140.84 17.0227 140.582 17.2159C140.325 17.4053 140.154 17.6439 140.071 17.9318L137.832 17.75C137.946 17.2197 138.17 16.7614 138.503 16.375C138.836 15.9848 139.266 15.6856 139.793 15.4773C140.323 15.2652 140.937 15.1591 141.634 15.1591C142.118 15.1591 142.582 15.2159 143.026 15.3295C143.473 15.4432 143.868 15.6193 144.213 15.858C144.562 16.0966 144.836 16.4034 145.037 16.7784C145.238 17.1496 145.338 17.5947 145.338 18.1136V24H143.043V22.7898H142.974C142.834 23.0625 142.647 23.303 142.412 23.5114C142.177 23.7159 141.895 23.8769 141.565 23.9943C141.236 24.108 140.855 24.1648 140.423 24.1648ZM141.116 22.4943C141.473 22.4943 141.787 22.4242 142.06 22.2841C142.332 22.1402 142.546 21.947 142.702 21.7045C142.857 21.4621 142.935 21.1875 142.935 20.8807V19.9545C142.859 20.0038 142.755 20.0492 142.622 20.0909C142.493 20.1288 142.348 20.1648 142.185 20.1989C142.022 20.2292 141.859 20.2576 141.696 20.2841C141.533 20.3068 141.385 20.3277 141.253 20.3466C140.969 20.3883 140.721 20.4545 140.509 20.5455C140.296 20.6364 140.132 20.7595 140.014 20.9148C139.897 21.0663 139.838 21.2557 139.838 21.483C139.838 21.8125 139.957 22.0644 140.196 22.2386C140.438 22.4091 140.745 22.4943 141.116 22.4943ZM149.636 12.3636V24H147.216V12.3636H149.636Z" fill="#33414E"/>
</svg>
